<svg xmlns="http://www.w3.org/2000/svg"
    xmlns:xlink="http://www.w3.org/1999/xlink"
    width="500"
    zoomAndPan="magnify"
    viewBox="0 0 375 374.999991"
    height="500"
    preserveAspectRatio="xMidYMid meet"
    version="1.0">
    <defs>
        <g />
        <clipPath id="a2e2ca84b5">
            <path
                d="M 101.320312 194 L 160 194 L 160 253 L 101.320312 253 Z M 101.320312 194 "
                clip-rule="nonzero" />
        </clipPath>
        <clipPath id="d9384b44ab">
            <path
                d="M 154 156 L 221.375 156 L 221.375 169 L 154 169 Z M 154 156 "
                clip-rule="nonzero" />
        </clipPath>
    </defs>
    <path
        fill="#000000"
        d="M 131.542969 165.074219 C 131.542969 163.902344 131.578125 162.734375 131.648438 161.5625 C 131.71875 160.394531 131.828125 159.230469 131.96875 158.066406 C 132.113281 156.902344 132.289062 155.746094 132.503906 154.59375 C 132.71875 153.445312 132.96875 152.300781 133.25 151.164062 C 133.535156 150.027344 133.855469 148.902344 134.207031 147.785156 C 134.5625 146.667969 134.949219 145.5625 135.371094 144.46875 C 135.789062 143.375 136.246094 142.296875 136.734375 141.230469 C 137.21875 140.167969 137.738281 139.117188 138.292969 138.085938 C 138.84375 137.050781 139.425781 136.035156 140.039062 135.039062 C 140.65625 134.042969 141.296875 133.0625 141.972656 132.105469 C 142.648438 131.148438 143.351562 130.210938 144.082031 129.296875 C 144.8125 128.382812 145.570312 127.492188 146.359375 126.621094 C 147.144531 125.753906 147.957031 124.910156 148.796875 124.09375 C 149.632812 123.273438 150.496094 122.484375 151.382812 121.71875 C 152.269531 120.953125 153.179688 120.214844 154.109375 119.507812 C 155.042969 118.796875 155.996094 118.117188 156.96875 117.464844 C 157.945312 116.816406 158.9375 116.195312 159.949219 115.605469 C 160.960938 115.015625 161.988281 114.457031 163.035156 113.929688 C 164.082031 113.402344 165.144531 112.910156 166.21875 112.445312 C 167.296875 111.984375 168.386719 111.558594 169.488281 111.164062 C 170.589844 110.765625 171.703125 110.40625 172.828125 110.082031 C 173.953125 109.753906 175.089844 109.460938 176.230469 109.207031 C 177.375 108.949219 178.523438 108.726562 179.679688 108.542969 C 180.835938 108.355469 181.996094 108.207031 183.164062 108.089844 C 184.328125 107.976562 185.496094 107.898438 186.667969 107.851562 C 187.839844 107.808594 189.007812 107.804688 190.179688 107.832031 C 191.351562 107.859375 192.519531 107.925781 193.6875 108.027344 C 194.855469 108.125 196.015625 108.261719 197.175781 108.433594 C 198.335938 108.605469 199.488281 108.8125 200.632812 109.054688 C 201.777344 109.300781 202.914062 109.578125 204.042969 109.890625 C 205.171875 110.203125 206.292969 110.546875 207.398438 110.929688 C 208.507812 111.3125 209.601562 111.726562 210.683594 112.175781 C 211.765625 112.621094 212.832031 113.101562 213.886719 113.617188 C 214.9375 114.132812 215.972656 114.675781 216.992188 115.253906 C 218.011719 115.832031 219.011719 116.441406 219.992188 117.078125 C 220.976562 117.71875 221.9375 118.386719 222.878906 119.085938 C 223.816406 119.78125 224.738281 120.507812 225.632812 121.261719 C 226.527344 122.015625 227.402344 122.796875 228.25 123.605469 C 229.097656 124.414062 229.917969 125.246094 230.714844 126.105469 C 231.511719 126.964844 232.285156 127.847656 233.027344 128.75 C 233.769531 129.65625 234.484375 130.585938 235.167969 131.535156 C 235.855469 132.484375 236.511719 133.453125 237.136719 134.441406 C 237.765625 135.433594 238.359375 136.441406 238.925781 137.46875 C 239.488281 138.492188 240.019531 139.535156 240.519531 140.59375 C 241.023438 141.65625 241.488281 142.726562 241.921875 143.816406 C 242.359375 144.902344 242.757812 146.003906 243.125 147.117188 C 243.492188 148.226562 243.824219 149.351562 244.125 150.484375 C 244.421875 151.617188 244.683594 152.757812 244.914062 153.90625 C 245.140625 155.054688 245.332031 156.210938 245.492188 157.371094 C 245.648438 158.53125 245.769531 159.695312 245.855469 160.863281 C 245.941406 162.03125 245.988281 163.203125 246.003906 164.371094 C 246.015625 165.542969 245.996094 166.714844 245.9375 167.882812 C 245.878906 169.054688 245.785156 170.222656 245.65625 171.386719 C 245.527344 172.550781 245.359375 173.707031 245.160156 174.863281 C 244.957031 176.015625 244.722656 177.164062 244.453125 178.300781 C 244.179688 179.441406 243.875 180.570312 243.535156 181.691406 C 243.191406 182.8125 242.816406 183.921875 242.410156 185.019531 C 242 186.117188 241.558594 187.203125 241.082031 188.273438 C 240.609375 189.34375 240.101562 190.398438 239.558594 191.4375 C 239.019531 192.476562 238.449219 193.5 237.847656 194.503906 C 237.242188 195.507812 236.609375 196.492188 235.945312 197.457031 C 235.285156 198.421875 234.589844 199.367188 233.871094 200.289062 C 233.148438 201.210938 232.398438 202.113281 231.625 202.988281 C 230.847656 203.867188 230.042969 204.71875 229.214844 205.546875 C 228.222656 206.539062 227.195312 207.496094 226.128906 208.414062 C 225.066406 209.335938 223.96875 210.210938 222.839844 211.050781 C 221.714844 211.886719 220.554688 212.683594 219.367188 213.4375 C 218.179688 214.1875 216.96875 214.894531 215.730469 215.558594 C 214.488281 216.222656 213.226562 216.839844 211.941406 217.410156 C 210.660156 217.980469 209.355469 218.5 208.03125 218.972656 C 206.707031 219.449219 205.371094 219.871094 204.015625 220.25 C 202.660156 220.625 201.292969 220.949219 199.917969 221.222656 C 198.539062 221.496094 197.152344 221.722656 195.757812 221.894531 C 194.363281 222.066406 192.960938 222.1875 191.558594 222.253906 C 190.15625 222.324219 188.75 222.34375 187.34375 222.308594 C 185.941406 222.273438 184.539062 222.1875 183.140625 222.050781 C 181.742188 221.910156 180.351562 221.722656 178.964844 221.484375 C 177.582031 221.242188 176.207031 220.953125 174.84375 220.609375 C 173.480469 220.269531 172.128906 219.878906 170.796875 219.4375 C 169.460938 218.996094 168.144531 218.503906 166.847656 217.96875 C 165.546875 217.429688 164.273438 216.84375 163.015625 216.210938 C 161.761719 215.582031 160.53125 214.902344 159.324219 214.179688 C 158.121094 213.457031 156.941406 212.691406 155.792969 211.882812 C 154.644531 211.070312 153.527344 210.222656 152.441406 209.328125 C 151.355469 208.4375 150.304688 207.507812 149.285156 206.539062 C 148.269531 205.566406 147.289062 204.5625 146.34375 203.519531 C 145.402344 202.480469 144.496094 201.402344 143.632812 200.296875 C 142.769531 199.1875 141.945312 198.046875 141.167969 196.878906 C 140.386719 195.710938 139.652344 194.515625 138.957031 193.292969 C 138.265625 192.066406 137.621094 190.820312 137.019531 189.550781 C 136.417969 188.277344 135.867188 186.988281 135.363281 185.675781 C 134.855469 184.363281 134.402344 183.035156 133.996094 181.691406 C 133.585938 180.347656 133.230469 178.988281 132.921875 177.617188 C 132.617188 176.246094 132.359375 174.863281 132.15625 173.472656 C 131.949219 172.082031 131.796875 170.6875 131.695312 169.285156 C 131.589844 167.882812 131.542969 166.480469 131.542969 165.074219 Z M 233.398438 165.074219 C 233.398438 164.222656 233.375 163.367188 233.328125 162.515625 C 233.28125 161.664062 233.210938 160.816406 233.117188 159.96875 C 233.019531 159.121094 232.902344 158.277344 232.757812 157.433594 C 232.613281 156.59375 232.445312 155.757812 232.253906 154.925781 C 232.058594 154.09375 231.84375 153.269531 231.605469 152.453125 C 231.367188 151.632812 231.105469 150.820312 230.816406 150.015625 C 230.53125 149.214844 230.222656 148.417969 229.890625 147.632812 C 229.5625 146.847656 229.207031 146.070312 228.832031 145.304688 C 228.457031 144.539062 228.058594 143.785156 227.640625 143.039062 C 227.21875 142.296875 226.78125 141.566406 226.320312 140.847656 C 225.859375 140.132812 225.378906 139.425781 224.875 138.738281 C 224.375 138.046875 223.855469 137.371094 223.3125 136.710938 C 222.773438 136.050781 222.214844 135.40625 221.636719 134.777344 C 221.0625 134.148438 220.46875 133.535156 219.855469 132.941406 C 219.242188 132.347656 218.613281 131.773438 217.96875 131.214844 C 217.324219 130.65625 216.664062 130.117188 215.988281 129.59375 C 215.3125 129.074219 214.621094 128.574219 213.917969 128.09375 C 213.210938 127.613281 212.496094 127.152344 211.765625 126.710938 C 211.03125 126.273438 210.289062 125.851562 209.535156 125.457031 C 208.78125 125.058594 208.015625 124.683594 207.238281 124.328125 C 206.460938 123.976562 205.675781 123.644531 204.878906 123.335938 C 204.082031 123.03125 203.28125 122.742188 202.46875 122.480469 C 201.65625 122.21875 200.835938 121.980469 200.011719 121.765625 C 199.1875 121.550781 198.355469 121.359375 197.519531 121.191406 C 196.683594 121.023438 195.84375 120.878906 194.996094 120.761719 C 194.152344 120.640625 193.304688 120.546875 192.453125 120.476562 C 191.605469 120.402344 190.753906 120.359375 189.898438 120.335938 C 189.046875 120.3125 188.195312 120.316406 187.339844 120.34375 C 186.488281 120.371094 185.636719 120.421875 184.789062 120.496094 C 183.9375 120.570312 183.089844 120.671875 182.246094 120.796875 C 181.402344 120.917969 180.5625 121.066406 179.726562 121.238281 C 178.890625 121.414062 178.0625 121.609375 177.238281 121.828125 C 176.414062 122.046875 175.597656 122.292969 174.785156 122.558594 C 173.976562 122.824219 173.171875 123.113281 172.378906 123.425781 C 171.585938 123.738281 170.800781 124.074219 170.027344 124.433594 C 169.253906 124.789062 168.488281 125.167969 167.734375 125.570312 C 166.984375 125.972656 166.242188 126.394531 165.511719 126.839844 C 164.785156 127.28125 164.070312 127.746094 163.367188 128.230469 C 162.664062 128.714844 161.976562 129.222656 161.304688 129.746094 C 160.632812 130.269531 159.972656 130.8125 159.332031 131.375 C 158.691406 131.9375 158.066406 132.515625 157.457031 133.113281 C 156.847656 133.710938 156.257812 134.328125 155.683594 134.957031 C 155.109375 135.589844 154.554688 136.238281 154.019531 136.902344 C 153.480469 137.5625 152.964844 138.242188 152.46875 138.933594 C 151.96875 139.628906 151.492188 140.335938 151.035156 141.054688 C 150.578125 141.777344 150.144531 142.507812 149.726562 143.253906 C 149.3125 144 148.917969 144.757812 148.546875 145.523438 C 148.175781 146.292969 147.828125 147.070312 147.5 147.859375 C 147.171875 148.644531 146.867188 149.441406 146.585938 150.25 C 146.304688 151.054688 146.046875 151.867188 145.8125 152.6875 C 145.578125 153.507812 145.367188 154.332031 145.179688 155.164062 C 144.992188 156 144.828125 156.835938 144.691406 157.675781 C 144.550781 158.519531 144.433594 159.363281 144.34375 160.210938 C 144.253906 161.058594 144.1875 161.910156 144.144531 162.761719 C 144.101562 163.613281 144.085938 164.46875 144.089844 165.320312 C 144.097656 166.171875 144.128906 167.027344 144.183594 167.875 C 144.238281 168.726562 144.320312 169.578125 144.421875 170.425781 C 144.527344 171.269531 144.65625 172.113281 144.808594 172.953125 C 144.960938 173.792969 145.136719 174.628906 145.335938 175.457031 C 145.539062 176.285156 145.761719 177.109375 146.007812 177.925781 C 146.257812 178.742188 146.527344 179.550781 146.820312 180.351562 C 147.113281 181.152344 147.429688 181.945312 147.769531 182.726562 C 148.109375 183.507812 148.46875 184.28125 148.855469 185.042969 C 149.238281 185.804688 149.640625 186.558594 150.070312 187.296875 C 150.496094 188.035156 150.941406 188.761719 151.410156 189.472656 C 151.878906 190.1875 152.367188 190.886719 152.875 191.570312 C 153.382812 192.257812 153.910156 192.925781 154.457031 193.582031 C 155.003906 194.238281 155.570312 194.875 156.152344 195.5 C 156.734375 196.121094 157.335938 196.726562 157.953125 197.316406 C 158.570312 197.902344 159.207031 198.472656 159.855469 199.027344 C 160.507812 199.578125 161.171875 200.109375 161.855469 200.625 C 162.535156 201.136719 163.230469 201.632812 163.9375 202.105469 C 164.648438 202.578125 165.371094 203.03125 166.105469 203.464844 C 166.84375 203.898438 167.589844 204.308594 168.347656 204.699219 C 169.105469 205.089844 169.875 205.457031 170.65625 205.800781 C 171.4375 206.148438 172.226562 206.46875 173.023438 206.769531 C 173.824219 207.070312 174.628906 207.347656 175.445312 207.601562 C 176.257812 207.855469 177.078125 208.085938 177.90625 208.292969 C 178.734375 208.5 179.566406 208.683594 180.40625 208.84375 C 181.242188 209.003906 182.085938 209.136719 182.933594 209.25 C 183.777344 209.359375 184.625 209.445312 185.476562 209.507812 C 186.328125 209.570312 187.179688 209.609375 188.03125 209.621094 C 188.886719 209.636719 189.738281 209.625 190.589844 209.589844 C 191.441406 209.554688 192.292969 209.496094 193.144531 209.410156 C 193.992188 209.328125 194.839844 209.21875 195.679688 209.085938 C 196.523438 208.953125 197.363281 208.796875 198.195312 208.617188 C 199.03125 208.4375 199.855469 208.230469 200.679688 208.003906 C 201.5 207.777344 202.316406 207.523438 203.125 207.25 C 203.933594 206.976562 204.730469 206.675781 205.523438 206.355469 C 206.3125 206.035156 207.09375 205.691406 207.863281 205.328125 C 208.636719 204.960938 209.394531 204.574219 210.144531 204.167969 C 210.890625 203.757812 211.628906 203.328125 212.351562 202.875 C 213.078125 202.425781 213.789062 201.953125 214.484375 201.460938 C 215.183594 200.96875 215.863281 200.460938 216.53125 199.929688 C 217.199219 199.398438 217.851562 198.847656 218.488281 198.28125 C 219.125 197.710938 219.746094 197.125 220.347656 196.519531 C 222.414062 194.457031 224.257812 192.210938 225.882812 189.78125 C 227.503906 187.355469 228.878906 184.792969 229.996094 182.09375 C 231.117188 179.398438 231.960938 176.617188 232.535156 173.75 C 233.105469 170.886719 233.394531 167.996094 233.398438 165.074219 Z M 233.398438 165.074219 "
        fill-opacity="1"
        fill-rule="nonzero" />
    <g clip-path="url(#a2e2ca84b5)">
        <path
            fill="#000000"
            d="M 101.320312 246.207031 C 101.324219 245.375 101.488281 244.574219 101.808594 243.804688 C 102.132812 243.039062 102.585938 242.359375 103.175781 241.773438 L 148.273438 196.648438 C 148.5625 196.355469 148.882812 196.09375 149.226562 195.863281 C 149.570312 195.636719 149.929688 195.441406 150.3125 195.28125 C 150.695312 195.125 151.089844 195.003906 151.492188 194.925781 C 151.898438 194.84375 152.308594 194.804688 152.722656 194.804688 C 153.132812 194.804688 153.542969 194.84375 153.949219 194.925781 C 154.355469 195.003906 154.746094 195.125 155.128906 195.28125 C 155.511719 195.441406 155.875 195.636719 156.21875 195.863281 C 156.5625 196.09375 156.878906 196.355469 157.171875 196.648438 C 157.464844 196.9375 157.722656 197.257812 157.953125 197.601562 C 158.183594 197.945312 158.378906 198.308594 158.535156 198.6875 C 158.695312 199.070312 158.8125 199.464844 158.894531 199.867188 C 158.972656 200.273438 159.015625 200.683594 159.015625 201.097656 C 159.015625 201.511719 158.972656 201.917969 158.894531 202.324219 C 158.8125 202.730469 158.695312 203.125 158.535156 203.503906 C 158.378906 203.886719 158.183594 204.25 157.953125 204.59375 C 157.722656 204.9375 157.464844 205.253906 157.171875 205.546875 L 112.046875 250.640625 C 111.605469 251.078125 111.113281 251.441406 110.566406 251.734375 C 110.015625 252.023438 109.4375 252.230469 108.832031 252.351562 C 108.222656 252.46875 107.609375 252.5 106.992188 252.4375 C 106.375 252.378906 105.78125 252.230469 105.207031 251.992188 C 104.636719 251.753906 104.109375 251.441406 103.628906 251.046875 C 103.148438 250.65625 102.734375 250.203125 102.390625 249.6875 C 102.042969 249.171875 101.78125 248.617188 101.597656 248.027344 C 101.417969 247.433594 101.324219 246.828125 101.320312 246.207031 Z M 101.320312 246.207031 "
            fill-opacity="1"
            fill-rule="nonzero" />
    </g>
    <path
        fill="#000000"
        d="M 182.277344 179.59375 L 193.34375 179.59375 L 193.34375 186.972656 L 182.277344 186.972656 Z M 182.277344 179.59375 "
        fill-opacity="1"
        fill-rule="evenodd" />
    <path
        fill="#000000"
        d="M 170.605469 137.121094 C 171.46875 133.890625 174.390625 131.644531 177.734375 131.644531 L 197.886719 131.644531 C 201.226562 131.644531 204.152344 133.890625 205.015625 137.121094 L 211.660156 162.046875 L 204.535156 163.945312 L 197.886719 139.019531 L 177.734375 139.019531 L 171.085938 163.945312 L 163.960938 162.046875 Z M 170.605469 137.121094 "
        fill-opacity="1"
        fill-rule="evenodd" />
    <g clip-path="url(#d9384b44ab)">
        <path
            fill="#000000"
            d="M 182.351562 156.476562 C 185.964844 155.875 189.652344 155.875 193.265625 156.476562 L 221.613281 161.203125 L 220.398438 168.480469 L 192.054688 163.753906 C 189.246094 163.285156 186.375 163.285156 183.566406 163.753906 L 155.21875 168.480469 L 154.007812 161.203125 Z M 182.351562 156.476562 "
            fill-opacity="1"
            fill-rule="evenodd" />
    </g>
    <path
        fill="#000000"
        d="M 173.054688 177.75 C 170 177.75 167.523438 180.226562 167.523438 183.28125 C 167.523438 186.339844 170 188.816406 173.054688 188.816406 C 176.113281 188.816406 178.589844 186.339844 178.589844 183.28125 C 178.589844 180.226562 176.113281 177.75 173.054688 177.75 Z M 160.148438 183.28125 C 160.148438 176.152344 165.925781 170.375 173.054688 170.375 C 180.1875 170.375 185.964844 176.152344 185.964844 183.28125 C 185.964844 190.414062 180.1875 196.191406 173.054688 196.191406 C 165.925781 196.191406 160.148438 190.414062 160.148438 183.28125 Z M 160.148438 183.28125 "
        fill-opacity="1"
        fill-rule="evenodd" />
    <path
        fill="#000000"
        d="M 202.566406 177.75 C 199.507812 177.75 197.03125 180.226562 197.03125 183.28125 C 197.03125 186.339844 199.507812 188.816406 202.566406 188.816406 C 205.621094 188.816406 208.097656 186.339844 208.097656 183.28125 C 208.097656 180.226562 205.621094 177.75 202.566406 177.75 Z M 189.65625 183.28125 C 189.65625 176.152344 195.433594 170.375 202.566406 170.375 C 209.695312 170.375 215.472656 176.152344 215.472656 183.28125 C 215.472656 190.414062 209.695312 196.191406 202.566406 196.191406 C 195.433594 196.191406 189.65625 190.414062 189.65625 183.28125 Z M 189.65625 183.28125 "
        fill-opacity="1"
        fill-rule="evenodd" />
    <g
        fill="#5ce1e6"
        fill-opacity="1">
        <g transform="translate(87.740624, 76.249998)">
            <g>
                <path d="M 12.65625 0.40625 C 10.675781 0.40625 8.914062 0.160156 7.375 -0.328125 C 5.832031 -0.816406 4.546875 -1.457031 3.515625 -2.25 C 2.484375 -3.039062 1.695312 -3.910156 1.15625 -4.859375 L 4.265625 -8.65625 L 4.75 -8.65625 C 5.601562 -7.375 6.691406 -6.351562 8.015625 -5.59375 C 9.335938 -4.84375 10.882812 -4.46875 12.65625 -4.46875 C 14.164062 -4.46875 15.304688 -4.785156 16.078125 -5.421875 C 16.847656 -6.066406 17.234375 -6.945312 17.234375 -8.0625 C 17.234375 -8.738281 17.109375 -9.304688 16.859375 -9.765625 C 16.609375 -10.222656 16.195312 -10.613281 15.625 -10.9375 C 15.050781 -11.257812 14.273438 -11.539062 13.296875 -11.78125 L 9.625 -12.625 C 7.0625 -13.207031 5.148438 -14.175781 3.890625 -15.53125 C 2.640625 -16.894531 2.015625 -18.664062 2.015625 -20.84375 C 2.015625 -22.457031 2.414062 -23.875 3.21875 -25.09375 C 4.03125 -26.320312 5.207031 -27.273438 6.75 -27.953125 C 8.289062 -28.628906 10.132812 -28.96875 12.28125 -28.96875 C 14.488281 -28.96875 16.375 -28.675781 17.9375 -28.09375 C 19.507812 -27.519531 20.835938 -26.632812 21.921875 -25.4375 L 19.125 -21.609375 L 18.640625 -21.609375 C 17.828125 -22.453125 16.898438 -23.082031 15.859375 -23.5 C 14.816406 -23.925781 13.625 -24.140625 12.28125 -24.140625 C 10.738281 -24.140625 9.5625 -23.863281 8.75 -23.3125 C 7.945312 -22.769531 7.546875 -22.019531 7.546875 -21.0625 C 7.546875 -20.15625 7.828125 -19.4375 8.390625 -18.90625 C 8.953125 -18.375 9.929688 -17.957031 11.328125 -17.65625 L 15.078125 -16.875 C 17.847656 -16.289062 19.859375 -15.296875 21.109375 -13.890625 C 22.359375 -12.492188 22.984375 -10.671875 22.984375 -8.421875 C 22.984375 -6.640625 22.597656 -5.085938 21.828125 -3.765625 C 21.066406 -2.441406 19.910156 -1.414062 18.359375 -0.6875 C 16.804688 0.0390625 14.90625 0.40625 12.65625 0.40625 Z M 12.65625 0.40625 " />
            </g>
        </g>
    </g>
    <g
        fill="#5ce1e6"
        fill-opacity="1">
        <g transform="translate(112.269477, 76.249998)">
            <g>
                <path d="M 9.859375 0.40625 C 7.441406 0.40625 5.65625 -0.253906 4.5 -1.578125 C 3.351562 -2.898438 2.78125 -4.796875 2.78125 -7.265625 L 2.78125 -21.546875 L 8.1875 -21.546875 L 8.1875 -7.953125 C 8.1875 -6.640625 8.46875 -5.675781 9.03125 -5.0625 C 9.601562 -4.457031 10.476562 -4.15625 11.65625 -4.15625 C 13.15625 -4.15625 14.320312 -4.644531 15.15625 -5.625 C 15.988281 -6.613281 16.40625 -8.164062 16.40625 -10.28125 L 16.40625 -21.546875 L 21.8125 -21.546875 L 21.8125 0 L 16.625 0 L 16.625 -3.171875 L 16.21875 -3.265625 C 15.519531 -2.023438 14.671875 -1.101562 13.671875 -0.5 C 12.679688 0.101562 11.410156 0.40625 9.859375 0.40625 Z M 9.859375 0.40625 " />
            </g>
        </g>
    </g>
    <g
        fill="#5ce1e6"
        fill-opacity="1">
        <g transform="translate(137.188917, 76.249998)">
            <g>
                <path d="M 15.0625 0.40625 C 12.3125 0.40625 10.265625 -0.617188 8.921875 -2.671875 L 8.515625 -2.59375 L 8.515625 0 L 3.109375 0 L 3.109375 -30.203125 L 8.515625 -30.203125 L 8.515625 -19 L 8.921875 -18.921875 C 9.671875 -19.953125 10.546875 -20.710938 11.546875 -21.203125 C 12.554688 -21.703125 13.765625 -21.953125 15.171875 -21.953125 C 16.921875 -21.953125 18.445312 -21.539062 19.75 -20.71875 C 21.050781 -19.90625 22.066406 -18.660156 22.796875 -16.984375 C 23.523438 -15.304688 23.890625 -13.234375 23.890625 -10.765625 C 23.890625 -8.316406 23.507812 -6.253906 22.75 -4.578125 C 22 -2.910156 20.957031 -1.660156 19.625 -0.828125 C 18.300781 -0.00390625 16.78125 0.40625 15.0625 0.40625 Z M 13.421875 -4.1875 C 15.003906 -4.1875 16.210938 -4.710938 17.046875 -5.765625 C 17.878906 -6.828125 18.296875 -8.492188 18.296875 -10.765625 C 18.296875 -13.046875 17.878906 -14.710938 17.046875 -15.765625 C 16.210938 -16.828125 15.003906 -17.359375 13.421875 -17.359375 C 11.898438 -17.359375 10.691406 -16.8125 9.796875 -15.71875 C 8.898438 -14.625 8.453125 -12.972656 8.453125 -10.765625 C 8.453125 -8.546875 8.898438 -6.894531 9.796875 -5.8125 C 10.691406 -4.726562 11.898438 -4.1875 13.421875 -4.1875 Z M 13.421875 -4.1875 " />
            </g>
        </g>
    </g>
    <g
        fill="#000000"
        fill-opacity="1">
        <g transform="translate(162.986713, 76.249998)">
            <g>
                <path d="M 13.640625 0 L 7.328125 0 L 0.78125 -28.5625 L 6.40625 -28.5625 L 10.71875 -8.484375 L 11.21875 -8.484375 L 16.328125 -28.5625 L 21.15625 -28.5625 L 26.375 -8.484375 L 26.859375 -8.484375 L 31.1875 -28.5625 L 36.625 -28.5625 L 30.09375 0 L 23.765625 0 L 18.765625 -18.421875 L 18.359375 -18.421875 Z M 13.640625 0 " />
            </g>
        </g>
    </g>
    <g
        fill="#000000"
        fill-opacity="1">
        <g transform="translate(200.365872, 76.249998)">
            <g>
                <path d="M 8.40625 0.40625 C 7.019531 0.40625 5.816406 0.15625 4.796875 -0.34375 C 3.785156 -0.851562 3.003906 -1.597656 2.453125 -2.578125 C 1.910156 -3.566406 1.640625 -4.753906 1.640625 -6.140625 C 1.640625 -7.410156 1.910156 -8.476562 2.453125 -9.34375 C 3.003906 -10.207031 3.851562 -10.914062 5 -11.46875 C 6.144531 -12.03125 7.644531 -12.457031 9.5 -12.75 C 10.78125 -12.957031 11.753906 -13.1875 12.421875 -13.4375 C 13.097656 -13.6875 13.550781 -13.96875 13.78125 -14.28125 C 14.019531 -14.59375 14.140625 -14.988281 14.140625 -15.46875 C 14.140625 -16.15625 13.898438 -16.679688 13.421875 -17.046875 C 12.941406 -17.410156 12.140625 -17.59375 11.015625 -17.59375 C 9.816406 -17.59375 8.675781 -17.328125 7.59375 -16.796875 C 6.519531 -16.265625 5.582031 -15.5625 4.78125 -14.6875 L 4.390625 -14.6875 L 2.125 -18.109375 C 3.21875 -19.316406 4.550781 -20.257812 6.125 -20.9375 C 7.707031 -21.613281 9.429688 -21.953125 11.296875 -21.953125 C 14.140625 -21.953125 16.195312 -21.347656 17.46875 -20.140625 C 18.75 -18.929688 19.390625 -17.210938 19.390625 -14.984375 L 19.390625 -5.625 C 19.390625 -4.664062 19.816406 -4.1875 20.671875 -4.1875 C 20.992188 -4.1875 21.3125 -4.242188 21.625 -4.359375 L 21.890625 -4.28125 L 22.28125 -0.515625 C 21.988281 -0.316406 21.570312 -0.15625 21.03125 -0.03125 C 20.5 0.09375 19.914062 0.15625 19.28125 0.15625 C 17.988281 0.15625 16.976562 -0.0859375 16.25 -0.578125 C 15.53125 -1.078125 15.015625 -1.851562 14.703125 -2.90625 L 14.296875 -2.953125 C 13.242188 -0.710938 11.28125 0.40625 8.40625 0.40625 Z M 10.125 -3.640625 C 11.375 -3.640625 12.367188 -4.054688 13.109375 -4.890625 C 13.859375 -5.734375 14.234375 -6.90625 14.234375 -8.40625 L 14.234375 -10.59375 L 13.875 -10.671875 C 13.539062 -10.410156 13.109375 -10.191406 12.578125 -10.015625 C 12.054688 -9.835938 11.300781 -9.664062 10.3125 -9.5 C 9.144531 -9.300781 8.300781 -8.960938 7.78125 -8.484375 C 7.269531 -8.015625 7.015625 -7.34375 7.015625 -6.46875 C 7.015625 -5.539062 7.285156 -4.835938 7.828125 -4.359375 C 8.378906 -3.878906 9.144531 -3.640625 10.125 -3.640625 Z M 10.125 -3.640625 " />
            </g>
        </g>
    </g>
    <g
        fill="#000000"
        fill-opacity="1">
        <g transform="translate(223.078502, 76.249998)">
            <g>
                <path d="M 14.859375 -5.140625 L 16.265625 -1.140625 C 15.679688 -0.648438 14.945312 -0.269531 14.0625 0 C 13.175781 0.269531 12.175781 0.40625 11.0625 0.40625 C 8.726562 0.40625 6.953125 -0.226562 5.734375 -1.5 C 4.523438 -2.769531 3.921875 -4.613281 3.921875 -7.03125 L 3.921875 -17.265625 L 0.640625 -17.265625 L 0.640625 -21.5625 L 3.921875 -21.5625 L 3.921875 -25.765625 L 9.34375 -26.640625 L 9.34375 -21.5625 L 15.453125 -21.5625 L 15.453125 -17.265625 L 9.34375 -17.265625 L 9.34375 -7.421875 C 9.34375 -6.359375 9.5625 -5.582031 10 -5.09375 C 10.445312 -4.601562 11.09375 -4.359375 11.9375 -4.359375 C 12.894531 -4.359375 13.734375 -4.617188 14.453125 -5.140625 Z M 14.859375 -5.140625 " />
            </g>
        </g>
    </g>
    <g
        fill="#000000"
        fill-opacity="1">
        <g transform="translate(239.815153, 76.249998)">
            <g>
                <path d="M 12.5625 0.40625 C 10.476562 0.40625 8.632812 -0.0234375 7.03125 -0.890625 C 5.425781 -1.753906 4.175781 -3.023438 3.28125 -4.703125 C 2.382812 -6.390625 1.9375 -8.410156 1.9375 -10.765625 C 1.9375 -13.128906 2.382812 -15.148438 3.28125 -16.828125 C 4.175781 -18.515625 5.414062 -19.789062 7 -20.65625 C 8.59375 -21.519531 10.414062 -21.953125 12.46875 -21.953125 C 17.007812 -21.953125 19.914062 -20.304688 21.1875 -17.015625 L 17.484375 -14.359375 L 17.078125 -14.359375 C 16.628906 -15.367188 16.050781 -16.117188 15.34375 -16.609375 C 14.632812 -17.109375 13.675781 -17.359375 12.46875 -17.359375 C 10.90625 -17.359375 9.6875 -16.816406 8.8125 -15.734375 C 7.9375 -14.660156 7.5 -13.003906 7.5 -10.765625 C 7.5 -8.546875 7.941406 -6.894531 8.828125 -5.8125 C 9.710938 -4.726562 10.957031 -4.1875 12.5625 -4.1875 C 13.726562 -4.1875 14.71875 -4.5 15.53125 -5.125 C 16.351562 -5.757812 16.9375 -6.671875 17.28125 -7.859375 L 17.703125 -7.890625 L 21.546875 -5.78125 C 20.992188 -3.957031 19.976562 -2.46875 18.5 -1.3125 C 17.03125 -0.164062 15.050781 0.40625 12.5625 0.40625 Z M 12.5625 0.40625 " />
            </g>
        </g>
    </g>
    <g
        fill="#000000"
        fill-opacity="1">
        <g transform="translate(262.020019, 76.249998)">
            <g>
                <path d="M 3.109375 0 L 3.109375 -30.203125 L 8.515625 -30.203125 L 8.515625 -18.734375 L 8.921875 -18.65625 C 9.640625 -19.707031 10.519531 -20.519531 11.5625 -21.09375 C 12.601562 -21.664062 13.859375 -21.953125 15.328125 -21.953125 C 20.085938 -21.953125 22.46875 -19.257812 22.46875 -13.875 L 22.46875 0 L 17.046875 0 L 17.046875 -13.1875 C 17.046875 -14.65625 16.753906 -15.722656 16.171875 -16.390625 C 15.585938 -17.054688 14.675781 -17.390625 13.4375 -17.390625 C 11.925781 -17.390625 10.726562 -16.882812 9.84375 -15.875 C 8.957031 -14.863281 8.515625 -13.289062 8.515625 -11.15625 L 8.515625 0 Z M 3.109375 0 " />
            </g>
        </g>
    </g>
</svg>